<?xml version="1.0" standalone="no"?>
<!DOCTYPE svg PUBLIC "-//W3C//DTD SVG 20010904//EN"
 "http://www.w3.org/TR/2001/REC-SVG-20010904/DTD/svg10.dtd">
<svg version="1.0" xmlns="http://www.w3.org/2000/svg"
 width="240.000000pt" height="240.000000pt" viewBox="0 0 240.000000 240.000000"
 preserveAspectRatio="xMidYMid meet">

<g transform="translate(0.000000,240.000000) scale(0.100000,-0.100000)"
fill="#000000" stroke="none">
<path d="M1027 1910 c-113 -24 -253 -91 -349 -169 -125 -101 -234 -275 -278
-446 -29 -110 -29 -289 -1 -400 43 -168 151 -337 283 -444 67 -55 214 -136
221 -124 2 5 7 21 11 36 4 16 25 48 48 73 49 53 124 80 194 69 60 -9 133 -60
161 -114 25 -47 31 -129 14 -175 -21 -54 91 -155 197 -177 145 -30 284 48 343
191 8 19 14 67 14 106 0 60 -5 80 -32 134 l-33 62 46 62 c126 167 183 371 163
586 -24 258 -189 514 -408 634 l-49 26 -22 -35 c-12 -20 -45 -49 -74 -65 -133
-77 -309 3 -333 152 -6 43 0 42 -116 18z m813 -579 c50 -25 76 -79 60 -127 -7
-20 -24 -43 -40 -53 l-28 -17 29 -13 c36 -16 59 -58 59 -109 0 -45 -26 -84
-72 -108 -44 -23 -152 -36 -230 -29 l-68 7 0 234 0 233 58 4 c92 6 194 -3 232
-22z m-1210 -71 l0 -90 100 0 100 0 0 90 0 90 55 0 55 0 0 -235 0 -235 -55 0
-55 0 0 95 0 95 -100 0 -100 0 0 -95 0 -95 -60 0 -60 0 0 235 0 235 60 0 60 0
0 -90z m520 -62 c0 -126 3 -159 18 -188 21 -43 66 -59 113 -40 50 21 59 57 59
230 l0 150 61 0 61 0 -3 -163 c-4 -150 -6 -166 -29 -212 -59 -117 -244 -142
-343 -47 -44 42 -57 106 -57 274 l0 148 60 0 60 0 0 -152z m-96 -366 c7 -12
-7 -29 -28 -33 -42 -8 -38 -105 4 -116 31 -8 24 -33 -8 -33 -43 0 -66 31 -66
92 0 43 4 54 28 74 27 24 60 31 70 16z m766 -33 c0 -11 5 -17 10 -14 6 3 10
-1 10 -9 0 -9 -4 -16 -10 -16 -5 0 -10 -18 -10 -40 0 -22 5 -40 10 -40 6 0 10
-7 10 -16 0 -11 -8 -14 -27 -12 -26 3 -28 7 -31 53 -2 27 -8 53 -14 56 -13 8
19 59 38 59 8 0 14 -9 14 -21z m-650 -29 c40 -40 13 -124 -38 -118 -50 6 -66
83 -26 122 21 21 40 20 64 -4z m148 7 c7 -5 12 -31 12 -68 0 -52 -2 -59 -20
-59 -17 0 -20 7 -20 50 0 28 -4 50 -10 50 -5 0 -10 -22 -10 -50 0 -43 -3 -50
-20 -50 -18 0 -20 7 -20 68 l0 68 38 0 c20 -1 43 -5 50 -9z m152 -7 c5 -8 10
-39 10 -67 0 -46 -3 -53 -20 -53 -17 0 -20 7 -20 49 0 50 -13 74 -24 45 -3 -9
-6 -33 -6 -55 0 -32 -3 -39 -20 -39 -18 0 -20 7 -20 63 0 35 2 66 5 68 11 12
86 3 95 -11z m134 -2 c9 -12 16 -33 16 -45 0 -20 -5 -23 -36 -23 -21 0 -33 -4
-29 -10 3 -5 17 -10 31 -10 15 0 24 -6 24 -15 0 -19 -60 -21 -78 -3 -7 7 -12
31 -12 54 0 33 5 47 22 58 30 22 44 20 62 -6z m130 14 c2 -4 1 -14 -5 -22 -5
-8 -9 -11 -9 -6 0 5 -7 3 -15 -4 -22 -19 -19 -61 5 -67 29 -8 25 -33 -4 -33
-29 0 -56 33 -56 68 0 40 67 91 84 64z"/>
<path d="M1660 1220 l0 -50 43 0 c23 0 53 7 65 16 49 34 10 84 -65 84 l-43 0
0 -50z"/>
<path d="M1660 1023 l0 -63 41 0 c63 0 99 24 99 66 0 32 -25 47 -86 54 l-54 6
0 -63z"/>
<path d="M1124 746 c-8 -22 -1 -59 14 -64 8 -2 12 8 12 32 0 37 -16 57 -26 32z"/>
<path d="M1556 745 c-3 -9 0 -15 9 -15 8 0 15 7 15 15 0 8 -4 15 -9 15 -5 0
-11 -7 -15 -15z"/>
</g>
</svg>
